<?xml version="1.0" encoding="UTF-8"?>
<svg version="1.1" xmlns="http://www.w3.org/2000/svg" width="1024" height="1024">
<path d="M0 0 C337.92 0 675.84 0 1024 0 C1024 337.92 1024 675.84 1024 1024 C686.08 1024 348.16 1024 0 1024 C0 686.08 0 348.16 0 0 Z " fill="#090A0A" transform="translate(0,0)"/>
<path d="M0 0 C1.09764911 -0.00235223 2.19529822 -0.00470446 3.32620943 -0.00712797 C7.01812934 -0.01380486 10.71001395 -0.01336014 14.40193939 -0.01294994 C17.07016253 -0.01624937 19.7383826 -0.01993747 22.40660429 -0.02409142 C28.97963658 -0.03340641 35.55266214 -0.03733761 42.1257002 -0.03961039 C49.99919771 -0.04257531 57.8726863 -0.0512744 65.74617913 -0.06002467 C84.77585423 -0.08085773 103.80553087 -0.0913369 122.83521471 -0.10015428 C131.83900913 -0.10436224 140.84280288 -0.10958401 149.84659674 -0.11483881 C180.67252007 -0.13272762 211.49844359 -0.14772346 242.32437134 -0.155159 C244.25921256 -0.15563375 246.19405379 -0.15610964 248.12889501 -0.15658666 C249.08839226 -0.15682303 250.0478895 -0.15705941 251.03646242 -0.15730295 C255.89766796 -0.15850414 260.7588735 -0.15971959 265.62007904 -0.16094494 C266.58479552 -0.16118509 267.54951199 -0.16142524 268.5434623 -0.16167267 C299.82102493 -0.16956538 331.09854964 -0.19299737 362.37609572 -0.22550088 C395.45090475 -0.25980931 428.52569159 -0.27951104 461.6005187 -0.28280324 C465.23233891 -0.28322077 468.86415911 -0.28370033 472.49597931 -0.28422642 C473.39022397 -0.28434961 474.28446864 -0.2844728 475.20581162 -0.28459973 C489.58793281 -0.2869304 503.97000989 -0.30258289 518.35211537 -0.32306826 C532.81229241 -0.34333787 547.27241655 -0.34879817 561.73260516 -0.33929763 C570.31897488 -0.33408721 578.90516831 -0.33993843 587.49151261 -0.3618323 C593.2338381 -0.3753655 598.97604259 -0.37424123 604.71836936 -0.36143034 C607.98581462 -0.35455038 611.25285797 -0.35604093 614.5202859 -0.37099043 C637.15836906 -0.46813128 656.53518294 1.73329543 673.36910248 18.34906483 C689.11105401 34.63935719 691.36441133 51.39958407 691.33466339 73.02121449 C691.33911901 75.06022013 691.34443412 77.09922404 691.35053211 79.13822544 C691.36468349 84.72853455 691.36637595 90.31878799 691.36593521 95.90911245 C691.36758592 101.94339391 691.38065714 107.97765259 691.39212799 114.01192188 C691.41376942 126.51414674 691.42238163 139.01635914 691.427163 151.51859872 C691.42742417 152.19759267 691.42768535 152.87658662 691.42795444 153.57615614 C691.42821471 154.25655975 691.42847498 154.93696335 691.42874314 155.63798525 C691.43182935 163.18868232 691.43833546 170.73937589 691.44495583 178.29007053 C691.46459886 201.10887766 691.4810061 223.92768103 691.48383236 246.74649715 C691.48392642 247.47584933 691.48402048 248.2052015 691.48411739 248.95665526 C691.48449586 251.91221731 691.48485986 254.86777937 691.48522037 257.82334143 C691.48549209 260.04773621 691.48576877 262.27213099 691.48604584 264.49652576 C691.48613386 265.23155189 691.48622188 265.96657801 691.48631257 266.72387766 C691.48921723 289.81251939 691.51130898 312.90107735 691.54756927 335.98968983 C691.58833544 361.94786623 691.61199122 387.90598555 691.61229187 413.8641957 C691.61238869 416.63462282 691.6125554 419.40504992 691.61277199 422.17547703 C691.6128161 422.85759274 691.61286022 423.53970846 691.61290567 424.24249435 C691.61402339 435.19783525 691.63140098 446.1530919 691.65459131 457.10840571 C691.67748441 468.12809012 691.68120399 479.14767584 691.66704201 490.16737767 C691.65988049 496.13192188 691.66069849 502.09617555 691.68345261 508.06068707 C691.70411218 513.52868082 691.70137683 518.99616191 691.68057776 524.46415053 C691.67709627 526.43451744 691.68193552 528.40492187 691.6962822 530.37523963 C691.85194268 553.24001895 685.25552484 571.35832204 669.06050873 588.13422108 C657.10748046 598.77755554 643.49655405 604.71216574 628.06050873 608.13422108 C627.34055222 608.31186497 626.6205957 608.48950886 625.87882233 608.6725359 C622.14468583 609.28424762 618.46205318 609.26520322 614.6901474 609.24774647 C613.86036377 609.24789249 613.03058014 609.24803852 612.17565155 609.24818897 C609.44323325 609.2474944 606.71088381 609.23972336 603.97847748 609.23187733 C602.07990303 609.23001153 600.1813281 609.22858839 598.28275299 609.22758961 C593.29329339 609.22377718 588.30386304 609.21395777 583.31441498 609.20288563 C578.22001796 609.19264411 573.1256162 609.18808611 568.03121185 609.1830492 C558.04096465 609.17233436 548.05073912 609.15527324 538.06050873 609.13422108 C541.2547533 606.68866509 544.49029503 604.70037485 548.02144623 602.76312733 C548.60054245 602.44436634 549.17963867 602.12560535 549.77628326 601.79718494 C551.66107162 600.76071524 553.54823166 599.7286511 555.43550873 598.69672108 C556.73747687 597.9820308 558.03931505 597.26710374 559.34102631 596.55194569 C562.61977357 594.75178199 565.90064418 592.95553297 569.18251801 591.16107655 C570.96974462 590.18384945 572.75659195 589.20592879 574.54341888 588.22797108 C595.02689825 577.01997157 595.02689825 577.01997157 600.08394623 576.92328358 C617.28898655 576.48240868 632.71000193 575.71383527 646.24800873 563.75922108 C654.94924324 554.48269833 659.17262677 542.45346345 659.19917393 529.94596004 C659.20201667 529.24148335 659.2048594 528.53700666 659.20778828 527.81118219 C659.21610758 525.45198181 659.21740223 523.09283073 659.21872711 520.73361683 C659.22328563 519.02902072 659.22827734 517.32442573 659.23366547 515.61983204 C659.24724151 510.92648898 659.25464649 506.23315309 659.26108022 501.53979555 C659.26921581 496.40436087 659.28308565 491.26894112 659.29623318 486.13351727 C659.32090209 476.16177527 659.34049336 466.19002971 659.35831841 456.21827339 C659.37915222 444.68560624 659.40628831 433.1529596 659.43343353 421.62030506 C659.50199541 391.16662202 659.56197493 360.71292014 659.62300873 330.25922108 C659.76738373 262.23797108 659.91175873 194.21672108 660.06050873 124.13422108 C431.04050873 124.13422108 202.02050873 124.13422108 -33.93949127 124.13422108 C-33.85699127 192.19672108 -33.77449127 260.25922108 -33.68949127 330.38422108 C-33.67370026 351.88868397 -33.65790924 373.39314686 -33.64163971 395.54926014 C-33.60842689 414.79703748 -33.60842689 414.79703748 -33.5699234 434.04480457 C-33.55289297 442.62929763 -33.5467323 451.21371447 -33.54795074 459.79822254 C-33.54931863 469.69947934 -33.53689034 479.60060444 -33.50745238 489.50181936 C-33.49282794 494.56630631 -33.48437689 499.63058832 -33.49366713 504.69509268 C-33.5019564 509.27856856 -33.49178743 513.86162503 -33.46714973 518.4450388 C-33.46147798 520.09827596 -33.46247347 521.75155299 -33.47098017 523.404778 C-33.53920738 537.92574048 -30.99482438 551.16605699 -20.97464752 562.32172108 C-9.50860022 573.26941181 3.35701208 576.45764432 18.71491241 576.35213184 C19.97973798 576.35157415 21.24456354 576.35101646 22.54771715 576.35044187 C25.31489804 576.34913022 28.08196299 576.34146991 30.84911537 576.32888317 C35.35292879 576.30842387 39.8567041 576.30183531 44.36055756 576.29687977 C50.90128193 576.28846722 57.44196724 576.27377913 63.98267174 576.25578976 C74.33411056 576.2281929 84.68549427 576.22482555 95.03696442 576.22588062 C96.80264868 576.22593503 98.56833295 576.22597265 100.33401722 576.22599369 C103.00977975 576.22603367 105.68554227 576.22607837 108.3613048 576.22617175 C118.44211182 576.22638429 128.52291614 576.2235314 138.60372162 576.21796131 C139.52481952 576.21746013 140.44591743 576.21695895 141.39492739 576.21644258 C156.30451598 576.20749224 171.21395215 576.17262483 186.12347715 576.12992234 C201.45475389 576.08680881 216.78579538 576.07825979 232.11711794 576.09973234 C241.55955781 576.11174752 251.0011281 576.09627999 260.44343884 576.0447753 C266.92442134 576.01187389 273.40488338 576.0121929 279.88589596 576.03790487 C283.61712927 576.05170309 287.34685585 576.05137807 291.07792854 576.0109129 C307.5971541 575.84218255 320.23935976 576.50957008 334.06050873 586.13422108 C336.09154848 587.29084109 338.13236417 588.43077099 340.18941498 589.54047108 C342.0019632 590.56934589 343.81317958 591.6005708 345.62300873 592.63422108 C347.57344852 593.74243664 349.52396988 594.85050865 351.47457123 595.95843983 C352.88271088 596.75967274 352.88271088 596.75967274 354.31929779 597.57709217 C358.37199965 599.87920585 362.43427551 602.16415303 366.49800873 604.44672108 C367.17226898 604.82570545 367.84652924 605.20468983 368.54122162 605.59515858 C370.04751377 606.44175633 371.55398674 607.28803238 373.06050873 608.13422108 C373.06050873 608.46422108 373.06050873 608.79422108 373.06050873 609.13422108 C326.30742787 609.20293414 279.55435236 609.2557737 232.80123093 609.28741707 C227.27771212 609.29116905 221.75419341 609.29505203 216.23067474 609.299016 C214.58127145 609.3001964 214.58127145 609.3001964 212.89854688 609.30140064 C195.1095508 609.31444352 177.3205839 609.33809121 159.53160512 609.36567947 C141.2694041 609.39376476 123.00721833 609.41040394 104.74499661 609.41648656 C93.4823078 609.42059652 82.21970147 609.43356304 70.95703805 609.45797048 C63.22680841 609.47386624 55.49662122 609.47861276 47.76637643 609.47472521 C43.31090038 609.47280964 38.85556815 609.47568176 34.40011787 609.4918375 C30.31167287 609.5065533 26.22346693 609.50709864 22.13501037 609.49691776 C20.665031 609.49566151 19.19503604 609.49936755 17.72508686 609.50887062 C-5.77645186 609.65182657 -27.40634454 602.76041447 -44.78324127 586.48578358 C-61.70571348 568.03047875 -66.57040118 547.20516476 -66.44742584 522.79144764 C-66.45204364 520.77613469 -66.45840241 518.76082512 -66.46633482 516.7455225 C-66.48293051 511.24850078 -66.47482639 505.75175921 -66.46238995 500.2547369 C-66.45330161 494.31053425 -66.46732789 488.36637819 -66.47830963 482.42218494 C-66.49503513 471.46452205 -66.4936329 460.50695461 -66.48266376 449.54928672 C-66.47257865 439.42430908 -66.46998536 429.29936385 -66.47475433 419.17438221 C-66.47505987 418.50126681 -66.47536541 417.82815141 -66.47568021 417.13463858 C-66.47692568 414.40184916 -66.4781993 411.66905976 -66.47951927 408.93627037 C-66.49173948 383.33065945 -66.48068652 357.72510483 -66.45913168 332.1195026 C-66.440151 309.39911819 -66.44184959 286.67882346 -66.46097565 263.95843983 C-66.48242089 238.39794382 -66.49087263 212.83749751 -66.47852659 187.27699375 C-66.47724383 184.54934916 -66.47599247 181.82170456 -66.47475433 179.09405994 C-66.47443802 178.42250528 -66.47412171 177.75095062 -66.47379582 177.05904582 C-66.46925695 166.94350624 -66.47454642 156.82800273 -66.48467255 146.71246815 C-66.49591217 135.20399621 -66.49281115 123.69563335 -66.47154957 112.18717384 C-66.46106568 106.31984742 -66.45687197 100.45270261 -66.47014618 94.58537769 C-66.48213095 89.20648959 -66.47540762 83.82795015 -66.45423597 78.44909334 C-66.44979561 76.51121439 -66.45197785 74.57330552 -66.46173912 72.63544607 C-66.56610507 50.18039024 -61.62419964 33.18120811 -46.21292877 16.23578358 C-33.81945126 4.16988697 -16.70605901 -0.02437266 0 0 Z " fill="#25323C" transform="translate(199.93949127197266,200.86577892303467)"/>
<path d="M0 0 C3.32632465 1.96555548 6.12496292 4.43120693 9 7 C9.90363281 7.80695313 10.80726563 8.61390625 11.73828125 9.4453125 C13.62959993 11.15613189 15.51368269 12.87498297 17.390625 14.6015625 C21.92176511 18.76641284 26.57453804 22.78448446 31.25390625 26.78125 C32.46100549 27.81242042 33.66803502 28.84367244 34.875 29.875 C35.77593384 30.64481201 35.77593384 30.64481201 36.69506836 31.43017578 C41.87529842 35.868371 46.96075276 40.40197717 52 45 C49.71291778 47.50750725 47.37414894 49.06960275 44.4140625 50.71484375 C43.49447754 51.22974365 42.57489258 51.74464355 41.62744141 52.27514648 C40.63663574 52.82372314 39.64583008 53.3722998 38.625 53.9375 C36.52055028 55.11407721 34.41638938 56.29117113 32.3125 57.46875 C30.71921875 58.35820313 30.71921875 58.35820313 29.09375 59.265625 C24.5865595 61.79238331 20.10569747 64.36415575 15.625 66.9375 C7.94324164 71.33971033 0.22939854 75.68203535 -7.5 80 C-16.81363505 85.20415743 -26.09758161 90.45618107 -35.3515625 95.765625 C-39.0667261 97.89671994 -42.78787328 100.01690683 -46.51344299 102.12973022 C-49.1002868 103.59702242 -51.68572327 105.06678512 -54.27108765 106.53668213 C-55.54179158 107.25830647 -56.81312758 107.978819 -58.08511353 108.69818115 C-59.86442919 109.70468584 -61.64141798 110.71518776 -63.41796875 111.7265625 C-64.96133911 112.60175537 -64.96133911 112.60175537 -66.53588867 113.49462891 C-69.06197351 114.90545558 -69.06197351 114.90545558 -71 117 C-68.8543786 118.20871072 -66.70850263 119.41696639 -64.5625 120.625 C-63.85802734 121.02178955 -63.15355469 121.4185791 -62.42773438 121.82739258 C-58.02912425 124.30277863 -53.62492579 126.7677615 -49.21484375 129.22265625 C-38.6861321 135.08946784 -28.20331571 141.01678814 -17.8125 147.125 C-9.32432937 152.11246614 -0.75623319 156.9136433 7.9050293 161.59326172 C14.3181105 165.06389765 20.67264812 168.62555015 27 172.25 C27.86979492 172.74532227 28.73958984 173.24064453 29.63574219 173.75097656 C33.53338737 175.97756408 37.40300462 178.23068434 41.21484375 180.6015625 C41.85099609 180.98924805 42.48714844 181.37693359 43.14257812 181.77636719 C44.80104331 182.79147782 46.44610798 183.82839538 48.08984375 184.8671875 C50.91162383 186.24514384 50.91162383 186.24514384 53.7109375 185.58203125 C58.53622759 183.26107818 63.0960309 180.56252276 67.6875 177.8125 C76.61595499 172.53149873 85.6060073 167.38829511 94.6875 162.375 C102.84550692 157.8683076 110.98002591 153.32842877 119.0625 148.6875 C126.70109496 144.30282109 134.37667976 139.99260448 142.08203125 135.7265625 C148.20923456 132.3333124 154.32397546 128.91781778 160.4375 125.5 C161.53481445 124.88785645 162.63212891 124.27571289 163.76269531 123.64501953 C165.30135254 122.78432861 165.30135254 122.78432861 166.87109375 121.90625 C167.78818115 121.39384766 168.70526855 120.88144531 169.65014648 120.35351562 C171.4739159 119.30302444 173.24880261 118.16746492 175 117 C180.32519465 116.98160555 183.25592424 120.63008504 186.8125 124.125 C188.06694882 125.32501322 189.3221506 126.52423985 190.578125 127.72265625 C191.47241211 128.58334717 191.47241211 128.58334717 192.38476562 129.46142578 C194.23033509 131.21940323 196.12708806 132.90416626 198.0625 134.5625 C203.30129294 139.09304411 208.37784477 143.79965729 213.43115234 148.53515625 C214.87897812 149.88700105 216.33933644 151.2253901 217.80078125 152.5625 C218.60902344 153.325625 219.41726563 154.08875 220.25 154.875 C220.95640625 155.53242187 221.6628125 156.18984375 222.390625 156.8671875 C224.49110643 159.65083522 224.91107058 161.52285967 225 165 C223.01457522 169.23143657 220.94158742 170.97482358 216.828125 173.09375 C215.78342041 173.64216553 214.73871582 174.19058105 213.66235352 174.75561523 C212.53627686 175.33126221 211.4102002 175.90690918 210.25 176.5 C208.47072503 177.43290122 206.69146598 178.36583723 204.91383362 179.30186462 C203.70382427 179.93889274 202.49307309 180.57451366 201.28160095 181.20875549 C195.64025497 184.16751537 190.09397639 187.27938218 184.5625 190.4375 C176.19610648 195.20005455 167.79724255 199.89940439 159.375 204.5625 C151.11732143 209.13850811 142.88172458 213.74874966 134.6875 218.4375 C133.83639648 218.92259033 132.98529297 219.40768066 132.10839844 219.9074707 C128.3250437 222.06922804 124.56155267 224.25308867 120.83984375 226.51953125 C120.2053833 226.89988525 119.57092285 227.28023926 118.91723633 227.67211914 C117.27378022 228.66052109 115.64026375 229.6654013 114.0078125 230.671875 C110.39130757 232.26877328 107.916385 232.41080962 104 232 C101.953125 231.0390625 101.953125 231.0390625 100.25 229.625 C99.58097656 229.07714844 98.91195312 228.52929688 98.22265625 227.96484375 C94.72708374 224.87473308 91.28018771 221.73447075 87.8515625 218.5703125 C85.15342126 216.1382893 82.39287733 213.83822126 79.5625 211.5625 C75.52029044 208.30451369 71.67090016 204.91117116 67.875 201.375 C63.12870628 196.95362654 58.2151004 192.85864752 53 189 C48.94008584 190.68337904 45.88712534 193.51134717 42.625 196.375 C41.37253376 197.46239846 40.1199255 198.54963338 38.8671875 199.63671875 C38.22749023 200.19407715 37.58779297 200.75143555 36.92871094 201.32568359 C34.47311947 203.45738565 31.9986906 205.56644876 29.52368164 207.67553711 C24.85118694 211.65857354 20.22480479 215.67492685 15.6875 219.8125 C1.64164067 232.55824673 1.64164067 232.55824673 -5.54248047 232.44677734 C-10.9224525 231.46869779 -15.46544109 228.13291779 -20.0625 225.3125 C-21.21684309 224.62246177 -22.37238249 223.93442123 -23.52905273 223.24829102 C-25.88905527 221.84722149 -28.24469652 220.43922866 -30.59765625 219.02636719 C-35.54084646 216.08230298 -40.54571194 213.25371948 -45.5625 210.4375 C-46.49328369 209.91260986 -47.42406738 209.38771973 -48.38305664 208.84692383 C-56.45717221 204.29512469 -64.54690553 199.77117229 -72.63574219 195.24560547 C-82.63670109 189.64838027 -92.6249045 184.02892596 -102.59033203 178.36865234 C-104.09580995 177.51356529 -105.60189447 176.6595443 -107.10888672 175.80712891 C-108.8255124 174.83489253 -110.53799231 173.85534534 -112.25 172.875 C-113.12140625 172.37742187 -113.9928125 171.87984375 -114.890625 171.3671875 C-116.92080668 170.05132901 -118.4701045 168.87147594 -120 167 C-120.67062365 163.57981941 -120.75538354 161.22981741 -118.88671875 158.1875 C-113.77360966 152.0974445 -107.57051726 146.85753671 -101.68310547 141.53027344 C-100.07130453 140.06482983 -98.47277299 138.58646856 -96.87890625 137.1015625 C-82.26135493 123.50756996 -82.26135493 123.50756996 -74 118 C-75.47418424 114.37062251 -77.39797434 112.65374405 -80.5 110.3125 C-85.06780618 106.77146293 -89.37044277 103.03676257 -93.640625 99.14453125 C-95.69627396 97.27606887 -97.77489901 95.44306264 -99.875 93.625 C-103.36513468 90.57647419 -106.81715173 87.48774011 -110.25 84.375 C-111.01159424 83.69171631 -111.01159424 83.69171631 -111.78857422 82.99462891 C-119.63051006 75.84744969 -119.63051006 75.84744969 -120.6875 70.5625 C-119.71516692 65.52404676 -117.04312758 63.93571933 -113 61 C-109.59558141 58.85907697 -106.09249072 56.92509416 -102.5625 55 C-100.49394024 53.85179296 -98.42625828 52.70200337 -96.359375 51.55078125 C-94.77479492 50.670271 -94.77479492 50.670271 -93.15820312 49.77197266 C-88.17207212 46.97440472 -83.24252262 44.08245275 -78.3125 41.1875 C-69.61414257 36.0913127 -60.88277607 31.05571964 -52.125 26.0625 C-42.59134421 20.62624266 -33.06853632 15.17193389 -23.5625 9.6875 C-22.47275879 9.0591626 -21.38301758 8.4308252 -20.26025391 7.78344727 C-14.77825853 4.63580534 -14.77825853 4.63580534 -9.37866211 1.35083008 C-5.88374665 -0.63391458 -3.97755921 -0.66292653 0 0 Z " fill="#2EAF77" transform="translate(604,468)"/>
<path d="M0 0 C5.07899813 1.52853658 8.3335662 4.65122445 12.1875 8.125 C13.53006747 9.31123555 14.87381759 10.49613395 16.21875 11.6796875 C17.19328125 12.53965332 17.19328125 12.53965332 18.1875 13.41699219 C22.01184748 16.75711463 25.98948982 19.8885072 30 23 C31.44826172 24.16015625 31.44826172 24.16015625 32.92578125 25.34375 C40.27339265 31.09486642 48.06157131 36.96040266 57.89624023 36.38549805 C66.44861243 34.8183406 74.09209025 30.53572196 81.5 26.1875 C83.49805998 25.03665214 85.49678822 23.88696391 87.49609375 22.73828125 C88.54265137 22.1345166 89.58920898 21.53075195 90.66748047 20.90869141 C96.00974143 17.84892612 101.38891018 14.85629031 106.77197266 11.86904907 C108.5286151 10.89381192 110.28385326 9.91604667 112.0390625 8.93823242 C113.12058594 8.3372876 114.20210937 7.73634277 115.31640625 7.1171875 C116.74641968 6.32223877 116.74641968 6.32223877 118.20532227 5.51123047 C121.10673741 3.94228142 124.04227955 2.4596117 127 1 C127.07609679 8.17156168 127.12861962 15.34301914 127.16479492 22.51489258 C127.17987654 24.95438528 127.20034469 27.3938509 127.22631836 29.83325195 C127.26272812 33.34072559 127.27973289 36.84784054 127.29296875 40.35546875 C127.30845261 41.44522507 127.32393646 42.53498138 127.33988953 43.65776062 C127.34197978 53.0732486 127.34197978 53.0732486 124 57 C118.81546763 62.03616738 112.57549983 65.28305413 106.3125 68.8125 C103.96400494 70.15090389 101.61625374 71.49052992 99.26953125 72.83203125 C98.66815338 73.17517365 98.06677551 73.51831604 97.44717407 73.87185669 C91.08744734 77.50715444 84.79276918 81.25021804 78.5 85 C66.4984837 92.13828114 54.42175661 99.13835126 42.31298828 106.09277344 C38.82814899 108.09893147 35.34899465 110.11466335 31.87109375 112.1328125 C30.68827211 112.81834648 29.50541119 113.50381269 28.32250977 114.18920898 C26.08892371 115.48386955 23.85627782 116.78015405 21.62475586 118.07836914 C18.75960702 119.73685172 15.88282547 121.37249562 13 123 C11.89446777 123.6489624 11.89446777 123.6489624 10.76660156 124.31103516 C6.26755917 126.80770842 2.16251202 128.20077053 -3 127 C-6.98879656 125.30304544 -10.65370959 123.15166926 -14.375 120.9375 C-15.46498291 120.3077124 -16.55496582 119.6779248 -17.67797852 119.02905273 C-19.97592882 117.69928357 -22.26958702 116.364277 -24.55810547 115.01855469 C-27.86328821 113.08017684 -31.18040724 111.16458129 -34.50390625 109.2578125 C-39.92138937 106.14841577 -45.32912724 103.02256392 -50.73388672 99.89111328 C-55.0715662 97.37955212 -59.41327983 94.87501783 -63.75537109 92.37109375 C-65.91090381 91.12805367 -68.06617916 89.88456719 -70.22119141 88.640625 C-75.79643013 85.4224869 -81.37446539 82.20931607 -86.95703125 79.00390625 C-92.40282734 75.87560108 -97.8421713 72.73647471 -103.2734375 69.58300781 C-104.95173713 68.60860821 -106.63117757 67.63616664 -108.3125 66.66699219 C-110.15320622 65.60239142 -111.98464032 64.5239595 -113.8125 63.4375 C-114.72644531 62.89996094 -115.64039063 62.36242187 -116.58203125 61.80859375 C-120.55180842 58.83927738 -123.57733727 56.46148595 -124.43748474 51.45219421 C-124.57848207 48.30295623 -124.56178603 45.19063202 -124.48828125 42.0390625 C-124.48120651 40.89335785 -124.47413177 39.7476532 -124.46684265 38.56723022 C-124.43892405 34.91914729 -124.37618549 31.27261662 -124.3125 27.625 C-124.28741407 25.14715763 -124.26460143 22.66929113 -124.24414062 20.19140625 C-124.18910548 14.12707734 -124.10550262 8.06364959 -124 2 C-115.43851845 6.20315137 -107.02420736 10.56122911 -98.75 15.3125 C-96.76191364 16.44305113 -94.77362993 17.57325526 -92.78515625 18.703125 C-89.97862482 20.30207078 -87.17245083 21.90163939 -84.36669922 23.50195312 C-66.1902317 34.77108644 -66.1902317 34.77108644 -45.625 35 C-35.89296096 31.36311344 -28.00226905 23.43164539 -20.21484375 16.74609375 C-16.32887384 13.41242068 -12.36059017 10.1820705 -8.390625 6.94921875 C-5.57561635 4.65397477 -2.78407384 2.33260241 0 0 Z " fill="#2FAF77" transform="translate(655,687)"/>
<path d="M0 0 C5.42442899 1.24922195 10.1222919 4.38397597 14.87890625 7.17285156 C16.08064501 7.86120946 17.28321546 8.54811721 18.48657227 9.23364258 C21.54908341 10.98429315 24.59916062 12.7553452 27.64483643 14.53509521 C30.25973532 16.062286 32.88039668 17.57952962 35.5 19.09863281 C39.41190465 21.37295037 43.31678229 23.65887886 47.21875 25.95019531 C53.31743299 29.52378879 59.4523011 33.03244506 65.59411621 36.53109741 C75.27141169 42.04403178 84.93582648 47.57857349 94.56640625 53.17285156 C95.52740234 53.7284375 96.48839844 54.28402344 97.47851562 54.85644531 C113.45696486 64.16493948 113.45696486 64.16493948 116.37890625 68.54785156 C116.18000164 73.91827607 115.10895598 76.72215954 111.37890625 80.54785156 C109.56015487 82.20085467 107.70959318 83.80812517 105.83984375 85.40332031 C103.42233487 87.51000662 101.07555747 89.67537208 98.73364258 91.86499023 C89.14103137 100.82830143 79.08937621 108.94486805 68.37890625 116.54785156 C57.93620813 111.60292687 47.95008256 106.04908973 38.00195312 100.17626953 C30.3605876 95.67527253 22.6455904 91.32856534 14.87890625 87.04785156 C5.32893962 81.77916222 -4.12430934 76.37289761 -13.52294922 70.83935547 C-22.49970837 65.57340839 -31.59031739 60.5246118 -40.71484375 55.52050781 C-45.82603855 52.70751211 -50.8509557 49.91205419 -55.62109375 46.54785156 C-52.35089584 42.35791048 -48.88164514 38.89938798 -44.84375 35.45019531 C-38.63541009 30.13655465 -32.6397839 24.57435686 -26.62109375 19.04785156 C-22.81863197 15.55753672 -19.01078247 12.07358772 -15.18359375 8.61035156 C-14.42175781 7.92070312 -13.65992188 7.23105469 -12.875 6.52050781 C-12.13121094 5.86953125 -11.38742187 5.21855469 -10.62109375 4.54785156 C-9.86699219 3.8040625 -9.11289062 3.06027344 -8.3359375 2.29394531 C-5.45591379 0.44161351 -3.43481064 -0.19100115 0 0 Z " fill="#2EAE77" transform="translate(712.62109375,467.4521484375)"/>
<path d="M0 0 C8.32031677 5.53677696 15.36999284 14.20587188 22.421875 21.25390625 C23.81326245 22.64207524 25.20472285 24.03017113 26.59625244 25.41819763 C29.49937345 28.31535833 32.40044817 31.21455048 35.30029297 34.11499023 C39.0095125 37.82431173 42.72558637 41.52668393 46.44343185 45.22735691 C49.31392966 48.08672479 52.17985943 50.95063772 55.04453278 53.81583977 C56.4128094 55.18293968 57.78270015 56.54842612 59.15425873 57.91223335 C61.07085453 59.81900028 62.98097367 61.73203702 64.88964844 63.64672852 C65.4517955 64.20325607 66.01394257 64.75978363 66.59312439 65.33317566 C70.52301101 69.29451829 74.40848492 73.27903063 75.625 78.875 C74.08104558 86.59477211 66.65284031 92.61312111 61.22265625 97.9375 C60.49308212 98.66187256 59.763508 99.38624512 59.01182556 100.13256836 C56.70015064 102.42658583 54.3818573 104.71375221 52.0625 107 C49.74759266 109.28710427 47.43424423 111.5757317 45.12388611 113.86743164 C43.69310192 115.28615448 42.25965591 116.70220012 40.82301331 118.11499023 C36.92234844 121.97710411 33.24217321 125.95461069 29.65809631 130.11135864 C27.18807722 132.92481416 24.56972868 135.57372485 21.91796875 138.21484375 C21.37771561 138.75605362 20.83746246 139.29726349 20.28083801 139.85487366 C19.15532971 140.98105459 18.02858943 142.10600561 16.90063477 143.22973633 C15.17019863 144.95474713 13.4452551 146.68512428 11.72070312 148.41601562 C10.62011271 149.51594633 9.51921272 150.61556738 8.41796875 151.71484375 C7.90340622 152.23143051 7.38884369 152.74801727 6.85868835 153.28025818 C3.52468069 156.5922694 1.5696802 158.17284459 -3.125 158.5 C-8.21543963 158.44289571 -10.54763949 156.49593218 -14.078125 153.0078125 C-14.71234375 152.34523438 -15.3465625 151.68265625 -16 151 C-16.65484375 150.37867188 -17.3096875 149.75734375 -17.984375 149.1171875 C-20.97127769 146.26605311 -23.42734939 143.88224379 -25 140 C-25.13564809 132.94629953 -21.54433216 129.82813206 -17 125 C-13.6046552 121.48967562 -10.15429144 118.03734057 -6.69140625 114.59375 C-5.7146999 113.61891355 -4.73821766 112.64385251 -3.76194763 111.6685791 C-1.21772539 109.12813699 1.32948736 106.59071491 3.87738037 104.05395508 C6.48715882 101.45448873 9.09403482 98.85211506 11.70117188 96.25 C16.79797872 91.16385082 21.89795508 86.0808953 27 81 C25.22010222 77.21256249 22.85056126 74.40132782 20.00390625 71.37109375 C19.48357315 70.81240097 18.96324005 70.25370819 18.42713928 69.67808533 C10.04927468 60.7685638 1.25047284 52.25430253 -7.47924805 43.69213867 C-9.81714285 41.39654795 -12.14549776 39.09162328 -14.47265625 36.78515625 C-15.18511002 36.09132339 -15.89756378 35.39749054 -16.63160706 34.68263245 C-20.92068188 30.41594568 -24.84835905 26.48774185 -25.125 20.125 C-23.44911973 15.46977703 -20.41881522 12.50363315 -17 9 C-15.92492187 7.88431641 -15.92492187 7.88431641 -14.828125 6.74609375 C-7.29234862 -0.94094821 -7.29234862 -0.94094821 0 0 Z " fill="#2FAF78" transform="translate(243,378)"/>
<path d="M0 0 C1.43941272 -0.00378596 2.87882178 -0.00928829 4.31822205 -0.01637268 C8.21706122 -0.03030863 12.11545817 -0.01917088 16.01427269 -0.00266147 C20.09940289 0.0112133 24.18450805 0.00472619 28.26965332 0.00120544 C35.12922268 -0.00149477 41.98861686 0.01196257 48.84814453 0.03515625 C56.77235755 0.06176486 64.69627773 0.06351241 72.62052011 0.05176789 C80.25156294 0.04097883 87.8825001 0.04718601 95.51353455 0.06132317 C98.757426 0.0670732 102.00123988 0.06700803 105.24513245 0.06225777 C109.0668897 0.05747617 112.88832738 0.0676383 116.71002388 0.08921242 C118.11042262 0.0947644 119.51085216 0.09526018 120.91125298 0.09025955 C122.82686938 0.08427833 124.74251677 0.09868432 126.65808105 0.11402893 C127.72878593 0.11645883 128.79949081 0.11888872 129.9026413 0.12139225 C135.26002348 0.79666989 139.66528643 3.26066207 143.00585938 7.56030273 C144.94018733 11.66868304 144.53232073 16.1005128 143.91992188 20.50170898 C142.00600272 25.23614058 138.46623401 28.22855292 133.91992188 30.50170898 C131.99731912 30.60401808 130.07113594 30.64121267 128.14582825 30.64888 C126.91631439 30.65603531 125.68680054 30.66319061 124.42002869 30.67056274 C123.04995753 30.67340316 121.6798861 30.67611487 120.30981445 30.67871094 C118.87261795 30.68497477 117.43542307 30.69162149 115.99822998 30.69862366 C112.08685177 30.71604352 108.17548578 30.72658862 104.26407838 30.73482919 C101.82004411 30.73997845 99.37601363 30.74605429 96.93198204 30.75234032 C89.28441263 30.77139725 81.6368529 30.78562594 73.98926431 30.79395229 C65.163252 30.80372022 56.33749078 30.8300259 47.51156694 30.87045318 C40.68939083 30.90062881 33.86728662 30.91542262 27.04504508 30.9187333 C22.97081761 30.92108262 18.89685824 30.93002697 14.82270241 30.95519447 C10.98703814 30.97850502 7.15181787 30.98269669 3.31610107 30.97243309 C1.9112621 30.9719383 0.50640106 30.97824214 -0.89837074 30.99198914 C-14.11391143 31.11403722 -14.11391143 31.11403722 -20.08007812 26.50170898 C-23.3636626 22.96554109 -24.36046072 20.21994105 -24.58007812 15.50170898 C-24.31157856 9.54101869 -22.11502652 6.41490049 -17.81164551 2.3690033 C-12.58647495 -0.97914934 -5.97058479 -0.04464132 0 0 Z " fill="#090909" transform="translate(224.080078125,252.498291015625)"/>
<path d="M0 0 C1.0169696 -0.0071553 2.03393921 -0.01431061 3.08172607 -0.02168274 C6.43442054 -0.03855514 9.7857753 -0.01917588 13.13842773 0.00219727 C15.47200125 0.0013685 17.8055747 -0.00109115 20.1391449 -0.00511169 C25.02572231 -0.00796863 29.91184111 0.00672328 34.79833984 0.03417969 C41.062099 0.0682805 47.32503912 0.06223661 53.58883762 0.04351711 C58.40584644 0.03294994 63.2226646 0.0418822 68.03965569 0.05690193 C70.34932832 0.06208496 72.65902086 0.06160049 74.96869087 0.05535698 C78.19570894 0.04990768 81.42155318 0.07027152 84.6484375 0.09765625 C86.08007484 0.08786743 86.08007484 0.08786743 87.54063416 0.07788086 C91.80689694 0.13945121 94.13709938 0.24412992 97.82896423 2.53944397 C101.97111831 7.02725499 101.01874329 12.11496857 101.07202148 17.94360352 C101.11552734 19.51271484 101.11552734 19.51271484 101.15991211 21.11352539 C101.22396832 28.8544718 101.22396832 28.8544718 98.86499023 32.79907227 C95.93278312 35.35047327 94.36647729 35.75736116 90.57318115 35.78500366 C89.69561661 35.79360413 88.81805206 35.80220459 87.91389465 35.81106567 C86.94868393 35.81532562 85.98347321 35.81958557 84.98901367 35.82397461 C83.46684486 35.83624084 83.46684486 35.83624084 81.91392517 35.84875488 C78.544755 35.87363344 75.17562704 35.89013142 71.80639648 35.90454102 C70.65730049 35.90986469 69.5082045 35.91518837 68.32428741 35.92067337 C62.24199591 35.9474159 56.15972502 35.96678713 50.07739258 35.98120117 C43.79121606 35.9978498 37.50556371 36.0426269 31.21958542 36.09357262 C26.38972361 36.12721099 21.55998671 36.13877494 16.73001862 36.14442825 C14.41275274 36.15115032 12.09549535 36.166397 9.7783432 36.19031906 C6.5343289 36.22189838 3.29173476 36.22201764 0.04760742 36.21459961 C-0.90950638 36.23100494 -1.86662018 36.24741028 -2.85273743 36.26431274 C-7.25492325 36.22311372 -10.30621252 36.05904508 -13.83496094 33.26858521 C-16.62723036 30.20705718 -17.00941415 28.93432209 -17.03735352 24.84985352 C-17.04508789 23.7605957 -17.05282227 22.67133789 -17.06079102 21.54907227 C-17.03758789 20.42114258 -17.01438477 19.29321289 -16.99047852 18.13110352 C-17.01368164 17.00317383 -17.03688477 15.87524414 -17.06079102 14.71313477 C-17.05305664 13.62387695 -17.04532227 12.53461914 -17.03735352 11.41235352 C-17.03058594 10.42299805 -17.02381836 9.43364258 -17.0168457 8.41430664 C-16.12242772 5.20790254 -14.76837983 3.73711882 -12.17783165 1.68845558 C-8.35680465 -0.39695194 -4.25518155 -0.05223897 0 0 Z " fill="#2FB079" transform="translate(335.240478515625,507.368896484375)"/>
<path d="M0 0 C0.99 0.33 1.98 0.66 3 1 C0.25414212 3.77496433 -2.4973949 6.54422967 -5.25 9.3125 C-6.02730469 10.09818359 -6.80460937 10.88386719 -7.60546875 11.69335938 C-8.35957031 12.45068359 -9.11367187 13.20800781 -9.890625 13.98828125 C-10.92751465 15.03302612 -10.92751465 15.03302612 -11.98535156 16.09887695 C-13.89804681 17.90379187 -15.86430235 19.46941668 -18 21 C-18.66 20.67 -19.32 20.34 -20 20 C-13.4 13.4 -6.8 6.8 0 0 Z " fill="#33C285" transform="translate(263,466)"/>
<path d="M0 0 C0.66 0.33 1.32 0.66 2 1 C0.10730953 2.91985828 -1.78899017 4.83591037 -3.6875 6.75 C-4.21794922 7.28882813 -4.74839844 7.82765625 -5.29492188 8.3828125 C-8.37931499 11.48612827 -11.51576273 14.33672402 -15 17 C-15.66 16.67 -16.32 16.34 -17 16 C-11.53105379 10.41711741 -5.96348734 5.05352742 0 0 Z " fill="#33C385" transform="translate(701,473)"/>
<path d="M0 0 C3.16115776 1.36983503 3.9927092 1.9890638 6 5 C4.3811004 6.03048037 2.75467511 7.04914678 1.125 8.0625 C0.22007812 8.63097656 -0.68484375 9.19945312 -1.6171875 9.78515625 C-2.40351562 10.18605469 -3.18984375 10.58695313 -4 11 C-4.66 10.67 -5.32 10.34 -6 10 C-4.7934375 9.319375 -4.7934375 9.319375 -3.5625 8.625 C-0.91143428 7.25274335 -0.91143428 7.25274335 0 5 C0.66 5 1.32 5 2 5 C1.34 3.35 0.68 1.7 0 0 Z " fill="#34BF83" transform="translate(650,509)"/>
<path d="M0 0 C0.66 0.33 1.32 0.66 2 1 C-0.97 3.64 -3.94 6.28 -7 9 C-7.66 8.67 -8.32 8.34 -9 8 C-6.03 5.36 -3.06 2.72 0 0 Z " fill="#34C386" transform="translate(632,706)"/>
<path d="M0 0 C0.33 0.66 0.66 1.32 1 2 C-0.125 3.5 -0.125 3.5 -2 5 C-5.1875 5.1875 -5.1875 5.1875 -8 5 C-8.66 3.68 -9.32 2.36 -10 1 C-9.0925 1.20625 -8.185 1.4125 -7.25 1.625 C-3.88972103 2.0127245 -2.75924185 1.80411967 0 0 Z " fill="#34C184" transform="translate(661,652)"/>
<path d="M0 0 C0.103125 0.598125 0.20625 1.19625 0.3125 1.8125 C1.08876455 4.28243264 2.07088921 5.32251235 4 7 C3.67 7.66 3.34 8.32 3 9 C0.56070254 7.07423885 -1.80090595 5.19909405 -4 3 C-2.68 2.01 -1.36 1.02 0 0 Z " fill="#0C1812" transform="translate(784,581)"/>
<path d="M0 0 C0.33 0.66 0.66 1.32 1 2 C-1.84936103 5.00765886 -4.23511958 7.27845212 -8 9 C-7.04270084 7.87411986 -6.08412105 6.7493285 -5.125 5.625 C-4.59132812 4.99851562 -4.05765625 4.37203125 -3.5078125 3.7265625 C-2.38567993 2.44163349 -1.20628025 1.20628025 0 0 Z " fill="#35C98A" transform="translate(229,500)"/>
</svg>
